<?xml version="1.0" encoding="UTF-8"?>
<svg version="1.1" xmlns="http://www.w3.org/2000/svg" width="500" height="500">
<path d="M0 0 C165 0 330 0 500 0 C500 165 500 330 500 500 C335 500 170 500 0 500 C0 335 0 170 0 0 Z " fill="#FEFEFE" transform="translate(0,0)"/>
<path d="M0 0 C1.84098632 1.19664111 3.67305162 2.40703441 5.5 3.625 C5.5 1.975 5.5 0.325 5.5 -1.375 C10.45 -1.375 15.4 -1.375 20.5 -1.375 C20.5 16.775 20.5 34.925 20.5 53.625 C15.55 53.625 10.6 53.625 5.5 53.625 C5.005 51.645 5.005 51.645 4.5 49.625 C3.406875 50.285 2.31375 50.945 1.1875 51.625 C-4.84398783 54.59287496 -10.7943781 54.84580255 -17.1796875 52.7421875 C-24.75502323 49.26536168 -30.42292047 44.57895515 -33.9375 36.9375 C-36.61229571 29.27362882 -36.84996197 21.7588988 -33.4375 14.3125 C-29.44845635 7.35122776 -24.49624093 2.26806051 -16.96484375 -0.71875 C-11.12498833 -2.2735768 -5.61827612 -2.20717991 0 0 Z " fill="#040404" transform="translate(405.5,231.375)"/>
<path d="M0 0 C0.495 0.495 0.495 0.495 1 1 C1.33 -0.65 1.66 -2.3 2 -4 C6.62 -4 11.24 -4 16 -4 C16 14.15 16 32.3 16 51 C11.38 51 6.76 51 2 51 C1.67 49.35 1.34 47.7 1 46 C0.32517578 46.54140625 0.32517578 46.54140625 -0.36328125 47.09375 C-6.14546163 51.2652629 -10.97254724 52.07266397 -18 51 C-25.93306351 48.74241913 -32.27500134 43.95269413 -36.9375 37.1875 C-40.36229878 30.4520624 -40.21188671 22.32772938 -39 15 C-36.38766351 7.27101947 -30.79916863 2.23251332 -24 -2 C-15.88780615 -5.96979699 -7.40062927 -4.81137517 0 0 Z " fill="#030303" transform="translate(311,234)"/>
<path d="M0 0 C8.91550164 -0.38346244 17.01712747 1.02029498 24.05859375 6.87890625 C29.15913766 12.44427805 31.08203125 17.62542621 31.08203125 25.234375 C26.13203125 25.234375 21.18203125 25.234375 16.08203125 25.234375 C15.42203125 23.254375 14.76203125 21.274375 14.08203125 19.234375 C10.15501335 15.85614181 6.57399199 15.82925905 1.51953125 15.859375 C0.21886719 15.85164062 -1.08179688 15.84390625 -2.421875 15.8359375 C-5.98791495 16.24234652 -7.37520444 16.78866276 -9.91796875 19.234375 C-10.0461224 21.6196483 -10.0461224 21.6196483 -8.91796875 24.234375 C-4.02518614 27.59216699 0.09378899 28.48132956 5.95703125 29.171875 C15.18110813 30.3174777 22.0682503 33.11528445 27.92578125 40.48828125 C31.54428734 45.95271444 31.96020808 50.75558066 31.08203125 57.234375 C29.06037831 62.27179948 25.79867351 66.52481455 21.08203125 69.234375 C11.82149684 72.63530258 0.61112344 74.37673337 -8.91796875 71.25 C-11.38987947 70.0581859 -13.63598881 68.75421795 -15.91796875 67.234375 C-16.84609375 66.6775 -17.77421875 66.120625 -18.73046875 65.546875 C-24.288726 59.67100305 -25.91796875 54.26167822 -25.91796875 46.234375 C-20.96796875 46.234375 -16.01796875 46.234375 -10.91796875 46.234375 C-10.234375 48.25260417 -9.55078125 50.27083333 -8.8671875 52.2890625 C-7.95461328 54.57432405 -7.95461328 54.57432405 -4.91796875 56.234375 C-2.23137221 56.40390355 0.33727156 56.46749983 3.01953125 56.421875 C4.09364258 56.4209082 4.09364258 56.4209082 5.18945312 56.41992188 C8.61711048 56.39133159 11.80645453 56.30342746 15.08203125 55.234375 C15.41600912 52.36024375 15.41600912 52.36024375 15.08203125 49.234375 C10.95310641 44.78784055 4.59245683 44.06743994 -1.16796875 43.421875 C-10.06775189 42.10263691 -17.24695502 39.21324897 -22.80078125 31.91796875 C-25.89381293 27.25679165 -26.72858096 22.78552951 -25.91796875 17.234375 C-23.68243048 10.09939358 -18.95734777 5.35504898 -12.41796875 1.921875 C-8.25196993 0.77622533 -4.28714378 0.3443489 0 0 Z " fill="#060606" transform="translate(118.91796875,212.765625)"/>
<path d="M0 0 C4.95 0 9.9 0 15 0 C15.33 6.6 15.66 13.2 16 20 C17.65 18.68 19.3 17.36 21 16 C28.1265627 13.6244791 36.65256531 13.89416204 43.5 17 C50.30343766 20.9500222 53.9201696 26.5207138 56 34 C56.16237778 36.78486623 56.23437565 39.46222484 56.1953125 42.2421875 C56.1924826 43.01055939 56.18965271 43.77893127 56.18673706 44.57058716 C56.17561311 47.00555521 56.1505236 49.44014462 56.125 51.875 C56.11496011 53.53384882 56.10583603 55.19270346 56.09765625 56.8515625 C56.07569937 60.90118579 56.04122406 64.95052887 56 69 C51.38 69 46.76 69 42 69 C41.98582031 66.75960937 41.97164062 64.51921875 41.95703125 62.2109375 C41.92636302 60.02637977 41.88728733 57.84212166 41.84741211 55.65771484 C41.82430333 54.14675596 41.80985312 52.63563762 41.80444336 51.12451172 C41.7951003 48.94398465 41.75400369 46.76594036 41.70703125 44.5859375 C41.6913208 43.2767334 41.67561035 41.9675293 41.65942383 40.61865234 C40.80705675 35.94120516 39.3228503 34.33259473 36 31 C32.06008887 29.03004444 27.29492536 29.54692261 23 30 C19.32289703 32.1012017 17.52759175 34.10394031 16 38 C15.76969093 40.38350485 15.64480346 42.77799271 15.5859375 45.171875 C15.56657135 45.8542926 15.5472052 46.53671021 15.5272522 47.23980713 C15.46768902 49.40974608 15.42116554 51.57973877 15.375 53.75 C15.33679869 55.22528297 15.2977457 56.70054415 15.2578125 58.17578125 C15.16040985 61.78373785 15.08066114 65.39147513 15 69 C10.05 69 5.1 69 0 69 C0 46.23 0 23.46 0 0 Z " fill="#060606" transform="translate(211,216)"/>
<path d="M0 0 C4.95 0 9.9 0 15 0 C15.33 1.65 15.66 3.3 16 5 C16.78375 4.360625 17.5675 3.72125 18.375 3.0625 C21.9830964 0.22756711 23.61304482 -0.12034558 28.125 -0.0625 C29.73375 -0.041875 31.3425 -0.02125 33 0 C33 4.95 33 9.9 33 15 C31.80375 15.2475 30.6075 15.495 29.375 15.75 C24.36942237 17.01689841 20.49885889 18.9755004 17.36401367 23.2097168 C15.71000167 26.59323266 15.57104951 29.07435229 15.48828125 32.83203125 C15.45283203 34.12431641 15.41738281 35.41660156 15.38085938 36.74804688 C15.35776319 38.10285934 15.33498065 39.45767718 15.3125 40.8125 C15.27930239 42.18688117 15.24481047 43.56123171 15.20898438 44.93554688 C15.12659243 48.29007607 15.06161766 51.64502491 15 55 C10.05 55 5.1 55 0 55 C0 36.85 0 18.7 0 0 Z " fill="#040404" transform="translate(334,230)"/>
<path d="M0 0 C4.95 0 9.9 0 15 0 C17.23093432 3.71722702 19.43468108 7.44645323 21.625 11.1875 C22.26179688 12.24259766 22.89859375 13.29769531 23.5546875 14.38476562 C24.14765625 15.40634766 24.740625 16.42792969 25.3515625 17.48046875 C26.18421631 18.88655396 26.18421631 18.88655396 27.03369141 20.32104492 C28 23 28 23 27.328125 25.54101562 C26.67070312 26.75821289 26.67070312 26.75821289 26 28 C25.59185059 28.79317627 25.18370117 29.58635254 24.76318359 30.40356445 C24.31281738 31.215271 23.86245117 32.02697754 23.3984375 32.86328125 C22.90859375 33.74951172 22.41875 34.63574219 21.9140625 35.54882812 C21.40617187 36.46083984 20.89828125 37.37285156 20.375 38.3125 C19.859375 39.24384766 19.34375 40.17519531 18.8125 41.13476562 C17.5442719 43.42462192 16.27248479 45.71250643 15 48 C10.05 48 5.1 48 0 48 C1.38163378 44.54591555 2.48015305 42.03012028 4.41796875 39.00390625 C5.09182617 37.91819336 5.09182617 37.91819336 5.77929688 36.81054688 C6.71966568 35.30934786 7.67026418 33.81450949 8.63085938 32.32617188 C10.59537793 29.12778782 11.95594694 26.86714976 12.1484375 23.078125 C10.42798637 18.46684783 7.9840228 14.38719616 5.4375 10.1875 C4.41374171 8.4736246 3.39151731 6.7588317 2.37109375 5.04296875 C1.91661865 4.29039795 1.46214355 3.53782715 0.99389648 2.76245117 C0 1 0 1 0 0 Z " fill="#E94F2C" transform="translate(182,239)"/>
<path d="M0 0 C1.93166016 0.01740234 1.93166016 0.01740234 3.90234375 0.03515625 C5.19269531 0.04417969 6.48304688 0.05320313 7.8125 0.0625 C8.81152344 0.07410156 9.81054688 0.08570313 10.83984375 0.09765625 C9.77999856 2.24483542 8.71696009 4.39034382 7.65234375 6.53515625 C7.33789307 7.17316162 7.02344238 7.81116699 6.69946289 8.46850586 C4.52395092 12.84550111 2.16270412 17.03369124 -0.5078125 21.1328125 C-1.36387417 23.11820148 -1.36387417 23.11820148 -0.6015625 25.26953125 C1.90597586 30.18947101 4.64439602 34.97346332 7.3828125 39.76757812 C7.82496094 40.55068359 8.26710937 41.33378906 8.72265625 42.140625 C9.12887207 42.8524292 9.53508789 43.5642334 9.95361328 44.29760742 C10.83984375 46.09765625 10.83984375 46.09765625 10.83984375 48.09765625 C5.83959963 49.20001554 1.78924385 49.55426726 -3.16015625 48.09765625 C-7.32684552 43.95263529 -9.76386564 38.36018185 -12.19677734 33.08056641 C-13.18876851 30.9146903 -13.18876851 30.9146903 -14.9921875 28.421875 C-16.66797251 25.08711888 -16.27519876 23.666637 -15.16015625 20.09765625 C-13.49047885 16.72523126 -11.59805281 13.50928894 -9.66015625 10.28515625 C-9.14839844 9.41439453 -8.63664063 8.54363281 -8.109375 7.64648438 C-3.65860646 0.11305953 -3.65860646 0.11305953 0 0 Z " fill="#E94F2C" transform="translate(168.16015625,238.90234375)"/>
<path d="M0 0 C3.22676998 2.70148184 5.38946413 4.60583547 6.15625 8.8359375 C6.25103591 17.29558011 6.25103591 17.29558011 3.4375 20.8125 C-0.85806999 24.61993704 -3.36853205 25.72456341 -9.28515625 25.5703125 C-13.42384739 24.91641525 -16.21103675 22.46450125 -18.94921875 19.4453125 C-21.47625604 15.37598598 -21.03308015 10.86037852 -20.3125 6.25 C-18.70237081 3.01057341 -16.37502053 1.05605006 -13.5 -1.125 C-8.35000258 -2.59642784 -4.65112529 -2.45719826 0 0 Z " fill="#F9F9F9" transform="translate(404.3125,245.75)"/>
<path d="M0 0 C3.6274662 1.3986313 6.37943792 3.27934726 8.9375 6.25 C10.62791029 10.62517958 10.8561239 14.56706033 9.30859375 18.96484375 C7.74381346 22.06166834 6.07578447 23.9466064 3.25 25.9375 C-0.63232186 27.20672061 -4.00592532 27.96196404 -8 27 C-12.15880183 24.48518637 -15.13652198 21.51805519 -17 17 C-17.46279153 12.83487623 -17.28978687 10.5684281 -15.375 6.8125 C-10.87137449 1.47925927 -7.08950776 -0.99501863 0 0 Z " fill="#F9F9F9" transform="translate(302,244)"/>
<path d="M0 0 C0.66 0 1.32 0 2 0 C2 1.98 2 3.96 2 6 C4.31 6 6.62 6 9 6 C9 4.02 9 2.04 9 0 C9.66 0 10.32 0 11 0 C11 4.62 11 9.24 11 14 C10.34 14 9.68 14 9 14 C9 12.02 9 10.04 9 8 C6.69 8 4.38 8 2 8 C2 9.98 2 11.96 2 14 C1.34 14 0.68 14 0 14 C0 9.38 0 4.76 0 0 Z " fill="#2A2A2A" transform="translate(363,289)"/>
<path d="M0 0 C1.2065625 0.0309375 1.2065625 0.0309375 2.4375 0.0625 C3.0975 1.3825 3.7575 2.7025 4.4375 4.0625 C3.7775 4.0625 3.1175 4.0625 2.4375 4.0625 C2.4375 3.4025 2.4375 2.7425 2.4375 2.0625 C0.7875 2.0625 -0.8625 2.0625 -2.5625 2.0625 C-2.5625 3.3825 -2.5625 4.7025 -2.5625 6.0625 C-1.799375 6.02125 -1.03625 5.98 -0.25 5.9375 C2.4375 6.0625 2.4375 6.0625 5.4375 8.0625 C4.5625 12.9375 4.5625 12.9375 3.4375 14.0625 C1.10452567 14.10342937 -1.22955225 14.10491723 -3.5625 14.0625 C-4.2225 12.7425 -4.8825 11.4225 -5.5625 10.0625 C-1.1075 11.0525 -1.1075 11.0525 3.4375 12.0625 C3.1075 11.0725 2.7775 10.0825 2.4375 9.0625 C-1.06544871 7.34682339 -1.06544871 7.34682339 -4.5625 6.0625 C-3.48963568 0.08511307 -3.48963568 0.08511307 0 0 Z " fill="#373737" transform="translate(349.5625,288.9375)"/>
<path d="M0 0 C0.66 0 1.32 0 2 0 C2.33 1.98 2.66 3.96 3 6 C3.78375 5.01 4.5675 4.02 5.375 3 C6.24125 2.01 7.1075 1.02 8 0 C8.66 0 9.32 0 10 0 C9.690625 0.5775 9.38125 1.155 9.0625 1.75 C7.568611 4.75518351 7.568611 4.75518351 7 8 C8.85250004 11.23761134 8.85250004 11.23761134 11 14 C10.01 14 9.02 14 8 14 C5 10.66666667 5 10.66666667 5 8 C4.34 8 3.68 8 3 8 C2.67 9.98 2.34 11.96 2 14 C1.34 14 0.68 14 0 14 C0 9.38 0 4.76 0 0 Z " fill="#444444" transform="translate(394,289)"/>
<path d="M0 0 C1.134375 0.020625 2.26875 0.04125 3.4375 0.0625 C3.4375 0.7225 3.4375 1.3825 3.4375 2.0625 C1.4575 2.0625 -0.5225 2.0625 -2.5625 2.0625 C-2.5625 3.3825 -2.5625 4.7025 -2.5625 6.0625 C-1.77875 6.02125 -0.995 5.98 -0.1875 5.9375 C2.4375 6.0625 2.4375 6.0625 4.4375 8.0625 C3.88194444 12.61805556 3.88194444 12.61805556 2.4375 14.0625 C0.43791636 14.10330783 -1.56295254 14.10504356 -3.5625 14.0625 C-3.8925 12.7425 -4.2225 11.4225 -4.5625 10.0625 C-1.5925 10.5575 -1.5925 10.5575 1.4375 11.0625 C1.4375 10.0725 1.4375 9.0825 1.4375 8.0625 C-1.5325 7.5675 -1.5325 7.5675 -4.5625 7.0625 C-4.60504356 5.06295254 -4.60330783 3.06208364 -4.5625 1.0625 C-3.5625 0.0625 -3.5625 0.0625 0 0 Z " fill="#3A3A3A" transform="translate(422.5625,288.9375)"/>
<path d="M0 0 C4.70588235 0.70588235 4.70588235 0.70588235 6 2 C6.3125 4.3125 6.3125 4.3125 6 7 C4 9.3125 4 9.3125 2 11 C3.65 11.33 5.3 11.66 7 12 C7 12.66 7 13.32 7 14 C3.7 14 0.4 14 -3 14 C-3 13.34 -3 12.68 -3 12 C-1.515 10.824375 -1.515 10.824375 0 9.625 C0.99 8.75875 1.98 7.8925 3 7 C3 5.68 3 4.36 3 3 C2.01 3 1.02 3 0 3 C-0.33 3.66 -0.66 4.32 -1 5 C-1.66 5 -2.32 5 -3 5 C-1.125 1.125 -1.125 1.125 0 0 Z " fill="#2B2B2B" transform="translate(409,289)"/>
<path d="M0 0 C4.70588235 0.70588235 4.70588235 0.70588235 6 2 C6.3125 4.3125 6.3125 4.3125 6 7 C4 9.3125 4 9.3125 2 11 C3.65 11.33 5.3 11.66 7 12 C7 12.66 7 13.32 7 14 C3.7 14 0.4 14 -3 14 C-3 13.34 -3 12.68 -3 12 C-1.515 10.824375 -1.515 10.824375 0 9.625 C0.99 8.75875 1.98 7.8925 3 7 C3 5.68 3 4.36 3 3 C2.01 3 1.02 3 0 3 C-0.33 3.66 -0.66 4.32 -1 5 C-1.66 5 -2.32 5 -3 5 C-1.125 1.125 -1.125 1.125 0 0 Z " fill="#2B2B2B" transform="translate(385,289)"/>
<path d="M0 0 C0.33 0 0.66 0 1 0 C1 4.62 1 9.24 1 14 C-1.64 13.34 -4.28 12.68 -7 12 C-3.25 7.125 -3.25 7.125 -1 6 C-0.34227572 2.97065509 -0.34227572 2.97065509 0 0 Z " fill="#EDEDED" transform="translate(393,289)"/>
<path d="M0 0 C0.66 0 1.32 0 2 0 C2 4.62 2 9.24 2 14 C1.34 14 0.68 14 0 14 C0 11.69 0 9.38 0 7 C-2.31 7 -4.62 7 -7 7 C-7 6.67 -7 6.34 -7 6 C-4.69 6 -2.38 6 0 6 C0 4.02 0 2.04 0 0 Z " fill="#444444" transform="translate(372,289)"/>
<path d="M0 0 C2.5 0.3125 2.5 0.3125 5 1 C5.33 1.66 5.66 2.32 6 3 C5.01 4.485 5.01 4.485 4 6 C3.67 5.01 3.34 4.02 3 3 C2.01 3 1.02 3 0 3 C-0.33 3.66 -0.66 4.32 -1 5 C-1.66 5 -2.32 5 -3 5 C-1.125 1.125 -1.125 1.125 0 0 Z " fill="#383838" transform="translate(409,289)"/>
<path d="M0 0 C2.5 0.3125 2.5 0.3125 5 1 C5.33 1.66 5.66 2.32 6 3 C5.01 4.485 5.01 4.485 4 6 C3.67 5.01 3.34 4.02 3 3 C2.01 3 1.02 3 0 3 C-0.33 3.66 -0.66 4.32 -1 5 C-1.66 5 -2.32 5 -3 5 C-1.125 1.125 -1.125 1.125 0 0 Z " fill="#383838" transform="translate(385,289)"/>
<path d="M0 0 C0.33 0 0.66 0 1 0 C1 2.31 1 4.62 1 7 C1.66 7 2.32 7 3 7 C2.67 8.98 2.34 10.96 2 13 C1.34 13 0.68 13 0 13 C0 8.71 0 4.42 0 0 Z " fill="#161616" transform="translate(394,290)"/>
</svg>
